<?xml version="1.0" encoding="UTF-8" standalone="no"?>
<!-- Created with Inkscape (http://www.inkscape.org/) -->

<svg
   width="210mm"
   height="297mm"
   viewBox="0 0 210 297"
   version="1.1"
   id="svg5"
   sodipodi:docname="logo-text-below.svg"
   inkscape:version="1.1.2 (b8e25be833, 2022-02-05)"
   xmlns:inkscape="http://www.inkscape.org/namespaces/inkscape"
   xmlns:sodipodi="http://sodipodi.sourceforge.net/DTD/sodipodi-0.dtd"
   xmlns="http://www.w3.org/2000/svg"
   xmlns:svg="http://www.w3.org/2000/svg">
  <sodipodi:namedview
     id="namedview7"
     pagecolor="#ffffff"
     bordercolor="#666666"
     borderopacity="1.0"
     inkscape:pageshadow="2"
     inkscape:pageopacity="0.0"
     inkscape:pagecheckerboard="0"
     inkscape:document-units="mm"
     showgrid="false"
     inkscape:snap-global="false"
     inkscape:zoom="0.99597362"
     inkscape:cx="331.8361"
     inkscape:cy="562.26389"
     inkscape:window-width="1366"
     inkscape:window-height="745"
     inkscape:window-x="-8"
     inkscape:window-y="-8"
     inkscape:window-maximized="1"
     inkscape:current-layer="layer1" />
  <defs
     id="defs2">
    <inkscape:path-effect
       effect="bend_path"
       id="path-effect19128"
       is_visible="true"
       lpeversion="1"
       bendpath="m 49.127226,197.94023 c 35.000661,11.91796 63.853124,9.49237 86.787664,0"
       prop_scale="1"
       scale_y_rel="false"
       vertical="false"
       hide_knot="false"
       bendpath-nodetypes="cc" />
    <inkscape:path-effect
       effect="spiro"
       id="path-effect5679"
       is_visible="true"
       lpeversion="1" />
    <inkscape:path-effect
       effect="spiro"
       id="path-effect5390"
       is_visible="true"
       lpeversion="1" />
  </defs>
  <g
     inkscape:label="Layer 1"
     inkscape:groupmode="layer"
     id="layer1">
    <path
       id="path846"
       style="fill:#ffffff;stroke:#000000;stroke-width:5"
       d="m 145.0465,145.04651 c 6.55971,29.09085 -16.91816,40.71658 -52.59928,40.37925 -33.678404,-0.3184 -58.806823,-11.87087 -52.599285,-40.37925 4.744705,-21.79026 23.549502,-40.37925 52.599285,-40.37925 29.04978,0 47.69382,18.62462 52.59928,40.37925 z"
       sodipodi:nodetypes="sssss" />
    <path
       id="path846-0"
       style="fill:#000000;fill-opacity:1;stroke:#000000;stroke-width:1.83435"
       d="m 83.214178,134.69929 c 1.096021,6.79706 -1.275992,16.09943 -13.695584,20.10625 -11.75931,3.7938 -21.854168,2.61127 -22.962284,-8.03515 -0.846982,-8.13754 3.572796,-16.7729 13.695588,-20.10624 10.12279,-3.33334 21.659844,-0.042 22.96228,8.03514 z"
       sodipodi:nodetypes="sssss" />
    <path
       id="path846-0-0"
       style="fill:#000000;fill-opacity:1;stroke:#000000;stroke-width:1.83435"
       d="m 101.54965,134.69929 c -1.09602,6.79706 1.27599,16.09943 13.69558,20.10625 11.75931,3.7938 21.85417,2.61127 22.96229,-8.03515 0.84698,-8.13754 -3.5728,-16.7729 -13.69559,-20.10624 -10.12279,-3.33334 -21.65984,-0.042 -22.96228,8.03514 z"
       sodipodi:nodetypes="sssss" />
    <ellipse
       style="fill:#fffffd;fill-opacity:1;stroke:#fffffe;stroke-width:2.8;stroke-miterlimit:4;stroke-dasharray:none;stroke-opacity:1"
       id="path2341"
       cx="72.316536"
       cy="138.21735"
       rx="1.8595706"
       ry="3.7191412" />
    <ellipse
       style="fill:#fffffd;fill-opacity:1;stroke:#fffffe;stroke-width:2.8;stroke-miterlimit:4;stroke-dasharray:none;stroke-opacity:1"
       id="path2341-1"
       cx="111.13963"
       cy="138.21735"
       rx="1.8595706"
       ry="3.7191412" />
    <path
       style="fill:#000000;fill-opacity:1;stroke:#000000;stroke-width:0.264583px;stroke-linecap:butt;stroke-linejoin:miter;stroke-opacity:1"
       d="m 41.973166,134.85267 c -2.125224,-7.70393 -2.273613,-23.04449 3.453488,-29.48748 6.375671,-7.172627 30.815741,2.12522 30.815741,2.12522 -15.622324,5.30326 -26.429183,14.98421 -34.269229,27.36226 z"
       id="path3144"
       sodipodi:nodetypes="cscc" />
    <path
       style="fill:#000000;fill-opacity:1;stroke:#000000;stroke-width:0.264583px;stroke-linecap:butt;stroke-linejoin:miter;stroke-opacity:1"
       d="m 143.83484,134.85267 c 2.12523,-7.70393 2.27362,-23.04449 -3.45348,-29.48748 -6.37567,-7.172626 -30.81574,2.12522 -30.81574,2.12522 15.62232,5.30326 26.42918,14.98422 34.26922,27.36226 z"
       id="path3144-5"
       sodipodi:nodetypes="cscc" />
    <path
       id="path3872"
       style="stroke-width:1.80542"
       d="m 98.093457,148.63283 c 0,2.12738 -2.735793,0.9459 -5.57871,1.06261 -3.200273,0.13139 -5.844361,1.06477 -5.844361,-1.06261 0,-2.12738 2.557141,-3.85197 5.711535,-3.85197 3.154394,0 5.711536,1.72459 5.711536,3.85197 z"
       sodipodi:nodetypes="sssss" />
    <path
       style="fill:none;stroke:#000000;stroke-width:3;stroke-linecap:round;stroke-linejoin:round;stroke-miterlimit:4;stroke-dasharray:none;stroke-opacity:1"
       d="m 81.486912,161.00151 c 0.729754,2.1301 2.105564,4.03409 3.898871,5.39568 1.793306,1.36158 3.99692,2.1753 6.24476,2.30597 2.566851,0.14921 5.177206,-0.60017 7.274026,-2.08824 2.096821,-1.48806 3.665881,-3.70472 4.372361,-6.17694"
       id="path5677"
       inkscape:path-effect="#path-effect5679"
       inkscape:original-d="m 81.486912,161.00151 c 3.381476,2.56748 6.762684,5.1347 10.143631,7.70165 3.380946,2.56695 7.764525,-5.50986 11.646387,-8.26518" />
    <g
       aria-label="PLANDA"
       id="text6755"
       style="font-size:19.7556px;line-height:1.25;font-family:'Eras Bold ITC';-inkscape-font-specification:'Eras Bold ITC';stroke-width:0.264583"
       transform="translate(-3.6666667e-8,-5.8208334)"
       inkscape:path-effect="#path-effect19128">
      <path
         d="m 46.895383,204.16542 c 0.330342,-0.7569 0.659833,-1.51417 0.988471,-2.27182 0.600247,-1.49397 1.198314,-2.98886 1.79419,-4.48465 0.398892,-1.0668 0.797126,-2.13386 1.194699,-3.20119 0.123306,-0.3453 0.243546,-0.69164 0.360777,-1.03899 0.0886,-0.26251 0.230259,-0.69219 0.426032,-1.29186 0.782971,0.28319 1.423737,0.50243 1.902606,0.657 0.460222,0.14856 1.107228,0.34183 1.920898,0.56693 0.821828,0.22069 1.508058,0.40982 2.074365,0.57704 0.812766,0.24 1.397408,0.46299 1.757701,0.67879 0.365606,0.21706 0.675413,0.48362 0.930127,0.80074 0.256397,0.3109 0.448412,0.64648 0.575559,1.00746 0.127128,0.36093 0.191696,0.75139 0.192848,1.1714 0.0028,0.41379 -0.04873,0.82309 -0.155871,1.22763 -0.220892,0.83404 -0.626189,1.54274 -1.224317,2.12212 -0.59791,0.57916 -1.322796,0.93596 -2.172003,1.06488 -0.849163,0.12892 -1.746534,0.0545 -2.683397,-0.22547 -0.344031,-0.10281 -0.731084,-0.26 -1.159377,-0.47228 0.03614,-0.2996 0.07018,-0.74845 0.104443,-1.35183 0.03424,-0.60296 0.05044,-1.05177 0.04711,-1.3499 0.257625,0.14075 0.536869,0.25713 0.837357,0.34879 0.63239,0.19289 1.147676,0.18456 1.541774,-0.0212 0.402464,-0.21018 0.665535,-0.5326 0.791887,-0.96516 0.06137,-0.21009 0.08133,-0.40549 0.0602,-0.58605 -0.01932,-0.18677 -0.08772,-0.35439 -0.205005,-0.50307 -0.117286,-0.14867 -0.260583,-0.26497 -0.430131,-0.34912 -0.169573,-0.0841 -0.368162,-0.16047 -0.595933,-0.22936 -0.22161,-0.067 -0.454161,-0.13114 -0.697752,-0.19251 -0.263922,-0.0609 -0.527752,-0.12242 -0.791483,-0.18462 -0.45079,1.1598 -0.92703,2.45861 -1.426431,3.89303 -0.916468,2.62739 -1.449793,4.17089 -1.620402,4.71206 l -0.377327,1.19687 c -0.646923,-0.21134 -1.29225,-0.42643 -1.935933,-0.64518 -0.770863,-0.25386 -1.254823,-0.40664 -2.025685,-0.6605 3e-6,-1e-5 6e-6,-2e-5 9e-6,-3e-5 z"
         id="path19126"
         inkscape:original-d="m 49.127226,204.55276 0.192926,-2.46945 0.250803,-4.82314 0.10611,-3.41479 q 0.0096,-0.54983 0.0096,-1.09967 0,-0.41479 -0.0096,-1.36013 1.27331,0.0289 2.045013,0.0289 0.742764,0 2.035367,-0.0386 1.292603,-0.0482 2.189707,-0.0482 1.292603,0 1.909966,0.16399 0.627008,0.16399 1.128615,0.5209 0.501607,0.34727 0.829581,0.81993 0.327974,0.47267 0.491961,1.08039 0.163987,0.59807 0.163987,1.22508 0,1.2926 -0.627009,2.36334 -0.627009,1.07074 -1.765271,1.60128 -1.138262,0.53055 -2.556266,0.53055 -0.5209,0 -1.205786,-0.11576 -0.07717,-0.44373 -0.289389,-1.32154 -0.212218,-0.87781 -0.347267,-1.30225 0.424437,0.0868 0.887459,0.0868 0.974275,0 1.446943,-0.46302 0.482315,-0.47267 0.482315,-1.14791 0,-0.32798 -0.106109,-0.57878 -0.106109,-0.26045 -0.33762,-0.42444 -0.231511,-0.16398 -0.511254,-0.21221 -0.279742,-0.0482 -0.636655,-0.0482 -0.347266,0 -0.723471,0.0193 l -0.810289,0.0579 q -0.125402,1.86174 -0.192926,4.13826 -0.125401,4.14791 -0.125401,4.97749 v 1.25401 l -1.919612,-0.0193 q -0.405144,0 -2.006428,0.0193 z" />
      <path
         d="m 59.609836,207.97955 c 0.543239,-1.42594 0.969209,-2.60298 1.276333,-3.51139 0.568489,-1.66227 1.093646,-3.32265 1.578878,-4.97962 0.492371,-1.65917 0.87294,-3.02937 1.141046,-4.09443 0.8272,0.22176 1.566425,0.40727 2.208977,0.55882 0.428259,0.10101 1.069635,0.24378 1.882379,0.41109 -0.325368,1.12106 -0.652539,2.24169 -0.981507,3.36188 -0.490677,1.75675 -0.98487,3.51267 -1.482561,5.26774 -0.111236,0.43349 -0.222587,0.86695 -0.334053,1.30038 1.103812,0.26761 1.890359,0.44248 2.209582,0.50928 1.726821,0.36133 3.074111,0.58893 3.967684,0.70544 -0.24644,0.9424 -0.494334,1.88449 -0.74368,2.82629 -1.776338,-0.33666 -3.469035,-0.68519 -5.065057,-1.0327 -2.146674,-0.4674 -4.062106,-0.92618 -5.658011,-1.3228 -3e-6,10e-6 -6e-6,2e-5 -10e-6,2e-5 z"
         id="path19123"
         inkscape:original-d="m 61.599877,204.55276 q 0.241158,-2.27652 0.347267,-3.71382 0.202572,-2.62379 0.299035,-5.20899 0.106109,-2.59485 0.106109,-4.24437 1.311895,0.0193 2.324756,0.0193 0.684886,0 1.967843,-0.0193 l -0.231511,3.49196 -0.289389,5.4598 -0.03858,1.34083 q 1.659162,0.0289 2.160769,0.0289 2.536974,0 3.839223,-0.0675 l -0.212219,2.91317 q -2.536974,-0.0193 -4.832791,-0.0193 -3.106105,0 -5.440507,0.0193 z" />
      <path
         d="m 69.987602,210.27173 c 0.365357,-0.40351 0.728271,-0.80825 1.088705,-1.21422 2.288884,-2.77262 4.472752,-5.59428 6.542272,-8.46157 0.222588,-0.32216 0.443813,-0.64484 0.663664,-0.96805 0.190223,-0.28184 0.463423,-0.69855 0.803925,-1.23334 1.072888,0.15591 1.901016,0.25926 2.387498,0.31463 0.874088,0.0995 1.68564,0.17592 2.43106,0.23274 0.328926,1.37588 0.672918,2.75045 1.032245,4.12349 0.74306,2.64497 1.546147,5.28337 2.411386,7.91357 0.170949,0.47959 0.344111,0.95887 0.5195,1.4378 -1.195005,-0.077 -1.918545,-0.13599 -2.173751,-0.1539 -0.528161,-0.037 -1.482484,-0.10095 -2.554168,-0.18433 -0.20878,-1.08589 -0.526191,-2.35988 -0.93991,-3.84363 -1.684033,-0.1672 -3.3644,-0.36664 -5.040274,-0.59691 -0.733335,1.04166 -1.51495,2.18805 -2.35278,3.44092 -1.265743,-0.20321 -2.038704,-0.34053 -2.324002,-0.38815 -0.436131,-0.0728 -1.429093,-0.23438 -2.49537,-0.41905 z m 8.737944,-5.25528 c 1.014043,0.13049 2.029418,0.24928 3.04593,0.35605 -0.498308,-2.2316 -0.792832,-3.72713 -0.817316,-3.86125 -0.525005,0.88776 -0.980324,1.61764 -1.349617,2.17818 -0.290535,0.44324 -0.583543,0.88559 -0.878997,1.32702 z"
         id="path19120"
         inkscape:original-d="m 71.545202,204.55276 0.800642,-1.38906 4.987131,-9.39549 0.530546,-1.05144 q 0.231511,-0.46302 0.646301,-1.33119 1.697747,0.0193 2.479097,0.0193 1.360127,0 2.517681,-0.0193 l 1.408358,4.0225 2.864948,7.73633 0.559485,1.40835 q -1.668808,-0.0193 -2.025721,-0.0193 -0.810288,0 -2.382633,0.0193 Q 83.5066,202.96113 82.705958,200.81 h -4.861729 q -0.839228,1.69775 -1.736333,3.74276 -1.794209,-0.0193 -2.199353,-0.0193 -0.733118,0 -2.363341,0.0193 z m 7.466227,-6.54983 h 2.999996 q -1.118969,-3.40514 -1.225078,-3.7524 -0.636655,1.418 -1.080385,2.32475 z" />
      <path
         d="m 88.96728,212.47115 c 0.09945,-0.6706 0.197818,-1.34131 0.295099,-2.01212 0.231735,-2.27866 0.456272,-4.55789 0.673577,-6.83767 0.07239,-0.91956 0.143962,-1.83918 0.214709,-2.75886 l 0.05894,-1.50186 c 0.960029,0.0501 1.814437,0.0774 2.551299,0.089 0.5177,0.008 1.27963,0.0102 2.225,-0.007 0.645063,1.2011 1.311005,2.3969 1.998286,3.58699 0.735547,1.27509 1.496245,2.5429 2.281981,3.8026 0.210363,0.35837 0.422624,0.71616 0.636779,1.07335 0.02413,-1.08276 0.02628,-2.59919 0.0039,-4.54916 -0.01589,-1.94242 -0.04563,-3.30582 -0.08165,-4.04315 0.756389,-0.0243 1.374949,-0.0562 1.827329,-0.0863 0.17278,-0.0115 0.8523,-0.0627 1.81324,-0.15579 0.006,0.96126 0.0102,1.92262 0.0123,2.88405 0.0744,2.66576 0.13817,5.33209 0.19128,7.99893 0.0391,0.76793 0.0779,1.53588 0.11616,2.30386 -0.90123,0.0567 -1.75298,0.10527 -2.53593,0.1486 -0.62075,0.0344 -1.591521,0.0894 -2.713894,0.138 -0.388659,-0.62817 -0.653797,-1.05795 -0.839455,-1.34627 -0.187447,-0.28083 -0.373578,-0.5621 -0.558393,-0.8438 -0.408036,-0.62298 -0.80971,-1.24781 -1.205096,-1.87443 -0.567089,-0.89368 -1.078161,-1.75435 -1.536049,-2.57734 -0.301083,-0.52108 -0.607969,-1.09484 -0.918842,-1.72108 -0.08296,1.52218 -0.168593,3.04422 -0.256893,4.56612 -0.04851,1.2814 -0.0981,2.56275 -0.14875,3.84405 -0.632287,-0.0179 -1.332813,-0.0428 -1.9651,-0.0607 -0.381025,-0.0109 -1.094702,-0.0255 -2.139846,-0.0599 6e-6,0 1.2e-5,0 1.8e-5,0 z"
         id="path19117"
         inkscape:original-d="m 89.361898,204.55276 0.192926,-2.02572 0.376205,-6.86815 0.106109,-2.76849 v -1.50482 q 1.495175,0.0193 2.643083,0.0193 0.819935,0 2.305464,-0.0193 l 4.128611,7.48552 0.569131,1.09968 q 0.106109,-1.62058 0.212219,-4.5434 0.115754,-2.92283 0.115754,-4.0418 1.18649,0.0193 1.90032,0.0193 0.32797,0 1.89067,-0.0193 l -0.23151,2.87459 -0.43408,7.98713 -0.0579,2.30546 q -1.25402,-0.0193 -2.34405,-0.0193 -0.906748,0 -2.508032,0.0193 -0.501607,-0.94533 -0.742765,-1.36977 l -1.620576,-2.74919 q -0.800642,-1.35048 -1.475882,-2.58521 -0.44373,-0.78135 -0.916398,-1.71704 l -0.202572,4.57235 -0.09646,3.84886 q -1.19614,-0.0193 -1.823148,-0.0193 -0.530546,0 -1.987136,0.0193 z" />
      <path
         d="m 106.49354,212.01734 c 0.006,-1.47052 -0.0131,-2.65674 -0.0496,-3.53484 -0.0541,-1.31357 -0.15059,-3.01084 -0.29203,-5.09153 -0.10912,-1.58761 -0.20298,-2.73565 -0.27518,-3.41517 l -0.11926,-1.12254 c 0.72042,-0.0572 1.34542,-0.12127 1.86584,-0.18603 0.49993,-0.0622 1.16519,-0.16153 1.97204,-0.30362 0.81056,-0.14926 1.5688,-0.28451 2.28291,-0.40382 0.81705,-0.1365 1.53888,-0.21501 2.17239,-0.22996 0.63292,-0.0149 1.24452,0.0796 1.83981,0.28481 0.60118,0.20386 1.13898,0.51844 1.6142,0.94677 0.47504,0.42816 0.88925,0.96066 1.23977,1.59901 0.34912,0.63216 0.61041,1.30741 0.77809,2.02749 0.16479,0.70767 0.24725,1.40793 0.24294,2.10186 -0.006,0.68769 -0.0907,1.32692 -0.2571,1.91791 -0.16641,0.59088 -0.40298,1.12038 -0.71014,1.58752 -0.30172,0.45933 -0.67639,0.87638 -1.12395,1.24894 -0.3326,0.27716 -0.67987,0.50941 -1.04056,0.6964 -0.3601,0.18667 -0.86769,0.37738 -1.52047,0.56488 -0.72723,0.20723 -1.56486,0.38757 -2.50881,0.53338 -1.39391,0.20556 -2.79117,0.38561 -4.19085,0.54021 -0.39464,0.0463 -1.03405,0.12983 -1.92003,0.23832 1e-5,0 1e-5,1e-5 2e-5,1e-5 z m 4.08376,-3.41529 c 0.37483,-0.02 0.76439,-0.0601 1.16803,-0.12089 0.68612,-0.10327 1.28889,-0.25895 1.80566,-0.46277 0.5169,-0.20388 0.94254,-0.53009 1.27371,-0.97538 0.33795,-0.4467 0.54569,-0.97942 0.62577,-1.5967 0.0789,-0.62357 0.0573,-1.24153 -0.06,-1.85416 -0.14386,-0.75127 -0.40295,-1.35693 -0.77046,-1.81757 -0.36898,-0.46732 -0.79607,-0.7614 -1.28304,-0.88431 -0.48143,-0.1242 -1.10424,-0.12111 -1.8758,0.001 -0.45258,0.0717 -0.98098,0.17205 -1.59298,0.29853 0.24392,2.46978 0.4803,4.94048 0.70916,7.41209 z"
         id="path19114"
         inkscape:original-d="m 105.58696,204.55276 q 0.21221,-2.19935 0.28939,-3.52089 0.11575,-1.96784 0.23151,-5.09324 0.0868,-2.39228 0.0868,-3.42443 v -1.12862 q 1.12862,0.0289 1.94855,0.0289 0.791,0 2.07396,-0.0386 1.28295,-0.0482 2.41157,-0.0482 1.2926,0 2.26688,0.15434 0.97427,0.15434 1.8135,0.63666 0.84887,0.48231 1.418,1.26366 0.56913,0.78135 0.86817,1.8328 0.29903,1.0418 0.29903,2.15112 0,1.09003 -0.23151,2.10289 -0.23151,1.00321 -0.6463,1.8135 -0.41479,0.81029 -0.97427,1.39871 -0.54984,0.57878 -1.26367,0.99357 -0.53054,0.30868 -1.07074,0.48232 -0.54019,0.17363 -1.47588,0.27974 -1.0418,0.11575 -2.36334,0.11575 l -3.8971,-0.0289 q -0.54984,0 -1.78456,0.0289 z m 4.16719,-2.90353 q 0.53055,0.0482 1.10933,0.0482 0.98392,0 1.75562,-0.17363 0.7717,-0.17363 1.35048,-0.74276 0.58843,-0.56914 0.86817,-1.45659 0.27974,-0.89711 0.27974,-1.8328 0,-1.14791 -0.41479,-1.92926 -0.41479,-0.79099 -1.10932,-1.09967 -0.68489,-0.30868 -1.87138,-0.30868 -0.69454,0 -1.63987,0.0579 z" />
      <path
         d="m 120.96844,209.6283 c 0.17799,-0.51634 0.3523,-1.03295 0.52294,-1.54979 1.00524,-3.46018 1.85614,-6.92641 2.5502,-10.38796 0.069,-0.38487 0.13616,-0.76965 0.20145,-1.15434 0.0555,-0.33431 0.13032,-0.82719 0.2157,-1.45361 1.02502,-0.29724 1.81391,-0.54717 2.27106,-0.69787 0.82454,-0.27183 1.58356,-0.54108 2.27436,-0.80177 0.87426,1.11085 1.76501,2.21252 2.67222,3.30465 1.79348,2.08229 3.65111,4.12655 5.57265,6.12982 0.36241,0.35957 0.72707,0.71765 1.09399,1.07421 -0.97201,0.38839 -1.96738,0.7676 -2.05484,0.80159 -0.50933,0.19792 -1.39145,0.5431 -2.42053,0.92858 -0.6532,-0.89627 -1.48254,-1.91459 -2.48671,-3.08727 -1.60781,0.56007 -3.22854,1.08153 -4.86038,1.56448 -0.24268,1.25334 -0.48992,2.61887 -0.75141,4.10767 -1.10925,0.29645 -2.1748,0.56125 -2.31255,0.59642 -0.45713,0.11669 -1.39882,0.36059 -2.48815,0.62519 z m 5.89882,-8.36515 c 0.97747,-0.30135 1.95053,-0.61699 2.91875,-0.94692 -1.38255,-1.80806 -2.28444,-3.06564 -2.35559,-3.16763 -0.10345,1.02527 -0.21243,1.87908 -0.31464,2.54211 -0.0795,0.52394 -0.16236,1.0481 -0.24852,1.57244 z"
         id="path19111"
         inkscape:original-d="m 119.1207,204.55276 0.80064,-1.38906 4.98713,-9.39549 0.53055,-1.05144 q 0.23151,-0.46302 0.6463,-1.33119 1.69775,0.0193 2.4791,0.0193 1.36012,0 2.51768,-0.0193 l 1.40836,4.0225 2.86494,7.73633 0.55949,1.40835 q -1.66881,-0.0193 -2.02572,-0.0193 -0.81029,0 -2.38264,0.0193 -0.42443,-1.59163 -1.22508,-3.74276 h -4.86172 q -0.83923,1.69775 -1.73634,3.74276 -1.79421,-0.0193 -2.19935,-0.0193 -0.73312,0 -2.36334,0.0193 z m 7.46623,-6.54983 h 2.99999 q -1.11897,-3.40514 -1.22508,-3.7524 -0.63665,1.418 -1.08038,2.32475 z" />
    </g>
  </g>
</svg>
