<?xml version="1.0" encoding="UTF-8" standalone="no"?>
<!-- Created with Inkscape (http://www.inkscape.org/) -->

<svg
   width="210mm"
   height="297mm"
   viewBox="0 0 210 297"
   version="1.1"
   id="svg5"
   sodipodi:docname="logo-text-beside.svg"
   inkscape:version="1.1.2 (b8e25be833, 2022-02-05)"
   xmlns:inkscape="http://www.inkscape.org/namespaces/inkscape"
   xmlns:sodipodi="http://sodipodi.sourceforge.net/DTD/sodipodi-0.dtd"
   xmlns="http://www.w3.org/2000/svg"
   xmlns:svg="http://www.w3.org/2000/svg">
  <sodipodi:namedview
     id="namedview7"
     pagecolor="#ffffff"
     bordercolor="#666666"
     borderopacity="1.0"
     inkscape:pageshadow="2"
     inkscape:pageopacity="0.0"
     inkscape:pagecheckerboard="0"
     inkscape:document-units="mm"
     showgrid="false"
     inkscape:snap-global="false"
     inkscape:zoom="0.99597362"
     inkscape:cx="348.4028"
     inkscape:cy="564.27197"
     inkscape:window-width="1366"
     inkscape:window-height="745"
     inkscape:window-x="-8"
     inkscape:window-y="-8"
     inkscape:window-maximized="1"
     inkscape:current-layer="layer1" />
  <defs
     id="defs2">
    <inkscape:path-effect
       effect="bend_path"
       id="path-effect19128"
       is_visible="true"
       lpeversion="1"
       bendpath="m 49.127226,197.94023 c 35.000661,11.91796 63.853124,9.49237 86.787664,0"
       prop_scale="1"
       scale_y_rel="false"
       vertical="false"
       hide_knot="false"
       bendpath-nodetypes="cc" />
    <inkscape:path-effect
       effect="spiro"
       id="path-effect5679"
       is_visible="true"
       lpeversion="1" />
    <inkscape:path-effect
       effect="spiro"
       id="path-effect5390"
       is_visible="true"
       lpeversion="1" />
  </defs>
  <g
     inkscape:label="Layer 1"
     inkscape:groupmode="layer"
     id="layer1">
    <g
       id="g19849">
      <path
         id="path846"
         style="fill:#ffffff;stroke:#000000;stroke-width:1.96453"
         d="m 63.705348,148.76788 c 2.577346,11.42995 -6.647236,15.99776 -20.66654,15.86522 -13.232427,-0.1251 -23.105518,-4.66413 -20.666543,-15.86522 1.86422,-8.56151 9.252726,-15.86523 20.666543,-15.86523 11.413815,0 18.739159,7.31772 20.66654,15.86523 z"
         sodipodi:nodetypes="sssss" />
      <path
         id="path846-0"
         style="fill:#000000;fill-opacity:1;stroke:#000000;stroke-width:0.720726"
         d="m 39.411096,144.7024 c 0.430632,2.6706 -0.501344,6.32555 -5.381069,7.89985 -4.620296,1.49061 -8.58662,1.02598 -9.022005,-3.15705 -0.332784,-3.19728 1.403771,-6.59016 5.38107,-7.89985 3.977299,-1.30969 8.51027,-0.0165 9.022004,3.15705 z"
         sodipodi:nodetypes="sssss" />
      <path
         id="path846-0-0"
         style="fill:#000000;fill-opacity:1;stroke:#000000;stroke-width:0.720726"
         d="m 46.615201,144.7024 c -0.430632,2.6706 0.501344,6.32555 5.381068,7.89985 4.620296,1.49061 8.586621,1.02598 9.022007,-3.15705 0.332783,-3.19728 -1.403772,-6.59016 -5.381071,-7.89985 -3.977299,-1.30969 -8.510268,-0.0165 -9.022004,3.15705 z"
         sodipodi:nodetypes="sssss" />
      <ellipse
         style="fill:#fffffd;fill-opacity:1;stroke:#fffffe;stroke-width:1.10014;stroke-miterlimit:4;stroke-dasharray:none;stroke-opacity:1"
         id="path2341"
         cx="35.129353"
         cy="146.08466"
         rx="0.73063534"
         ry="1.4612707" />
      <ellipse
         style="fill:#fffffd;fill-opacity:1;stroke:#fffffe;stroke-width:1.10014;stroke-miterlimit:4;stroke-dasharray:none;stroke-opacity:1"
         id="path2341-1"
         cx="50.38316"
         cy="146.08466"
         rx="0.73063534"
         ry="1.4612707" />
      <path
         style="fill:#000000;fill-opacity:1;stroke:#000000;stroke-width:0.103956px;stroke-linecap:butt;stroke-linejoin:miter;stroke-opacity:1"
         d="m 23.20728,144.76266 c -0.835012,-3.02691 -0.893315,-9.0543 1.356894,-11.58579 2.505035,-2.81816 12.107671,0.83501 12.107671,0.83501 -6.138096,2.08368 -10.384169,5.88738 -13.464565,10.75078 z"
         id="path3144"
         sodipodi:nodetypes="cscc" />
      <path
         style="fill:#000000;fill-opacity:1;stroke:#000000;stroke-width:0.103956px;stroke-linecap:butt;stroke-linejoin:miter;stroke-opacity:1"
         d="m 63.229281,144.76266 c 0.835014,-3.02691 0.893317,-9.0543 -1.356891,-11.58579 -2.505035,-2.81816 -12.107671,0.83501 -12.107671,0.83501 6.138094,2.08368 10.384168,5.88738 13.464562,10.75078 z"
         id="path3144-5"
         sodipodi:nodetypes="cscc" />
      <path
         id="path3872"
         style="stroke-width:0.709359"
         d="m 45.257245,150.17696 c 0,0.83586 -1.074908,0.37165 -2.191906,0.41751 -1.257404,0.0516 -2.296281,0.41835 -2.296281,-0.41751 0,-0.83586 1.004715,-1.51346 2.244093,-1.51346 1.239379,0 2.244094,0.6776 2.244094,1.51346 z"
         sodipodi:nodetypes="sssss" />
      <path
         style="fill:none;stroke:#000000;stroke-width:1.17872;stroke-linecap:round;stroke-linejoin:round;stroke-miterlimit:4;stroke-dasharray:none;stroke-opacity:1"
         d="m 38.732444,155.03668 c 0.286724,0.83693 0.827288,1.58502 1.531887,2.11999 0.7046,0.53498 1.570411,0.85469 2.4536,0.90603 1.008529,0.0586 2.034151,-0.23581 2.858003,-0.82048 0.823851,-0.58467 1.440345,-1.4556 1.717925,-2.42695"
         id="path5677"
         inkscape:path-effect="#path-effect5679"
         inkscape:original-d="m 38.732444,155.03668 c 1.3286,1.00878 2.657095,2.01745 3.985487,3.02602 1.328392,1.00857 3.050724,-2.16485 4.575928,-3.24743" />
    </g>
    <g
       aria-label="PLANDA"
       id="text6755"
       style="font-size:19.7556px;line-height:1.25;font-family:'Eras Bold ITC';-inkscape-font-specification:'Eras Bold ITC';stroke-width:0.264583"
       transform="translate(22.580494,-49.170918)">
      <path
         d="m 49.127226,204.55276 0.192926,-2.46945 0.250803,-4.82314 0.10611,-3.41479 q 0.0096,-0.54983 0.0096,-1.09967 0,-0.41479 -0.0096,-1.36013 1.27331,0.0289 2.045013,0.0289 0.742764,0 2.035367,-0.0386 1.292603,-0.0482 2.189707,-0.0482 1.292603,0 1.909966,0.16399 0.627008,0.16399 1.128615,0.5209 0.501607,0.34727 0.829581,0.81993 0.327974,0.47267 0.491961,1.08039 0.163987,0.59807 0.163987,1.22508 0,1.2926 -0.627009,2.36334 -0.627009,1.07074 -1.765271,1.60128 -1.138262,0.53055 -2.556266,0.53055 -0.5209,0 -1.205786,-0.11576 -0.07717,-0.44373 -0.289389,-1.32154 -0.212218,-0.87781 -0.347267,-1.30225 0.424437,0.0868 0.887459,0.0868 0.974275,0 1.446943,-0.46302 0.482315,-0.47267 0.482315,-1.14791 0,-0.32798 -0.106109,-0.57878 -0.106109,-0.26045 -0.33762,-0.42444 -0.231511,-0.16398 -0.511254,-0.21221 -0.279742,-0.0482 -0.636655,-0.0482 -0.347266,0 -0.723471,0.0193 l -0.810289,0.0579 q -0.125402,1.86174 -0.192926,4.13826 -0.125401,4.14791 -0.125401,4.97749 v 1.25401 l -1.919612,-0.0193 q -0.405144,0 -2.006428,0.0193 z"
         id="path19126" />
      <path
         d="m 61.599877,204.55276 q 0.241158,-2.27652 0.347267,-3.71382 0.202572,-2.62379 0.299035,-5.20899 0.106109,-2.59485 0.106109,-4.24437 1.311895,0.0193 2.324756,0.0193 0.684886,0 1.967843,-0.0193 l -0.231511,3.49196 -0.289389,5.4598 -0.03858,1.34083 q 1.659162,0.0289 2.160769,0.0289 2.536974,0 3.839223,-0.0675 l -0.212219,2.91317 q -2.536974,-0.0193 -4.832791,-0.0193 -3.106105,0 -5.440507,0.0193 z"
         id="path19123" />
      <path
         d="m 71.545202,204.55276 0.800642,-1.38906 4.987131,-9.39549 0.530546,-1.05144 q 0.231511,-0.46302 0.646301,-1.33119 1.697747,0.0193 2.479097,0.0193 1.360127,0 2.517681,-0.0193 l 1.408358,4.0225 2.864948,7.73633 0.559485,1.40835 q -1.668808,-0.0193 -2.025721,-0.0193 -0.810288,0 -2.382633,0.0193 Q 83.5066,202.96113 82.705958,200.81 h -4.861729 q -0.839228,1.69775 -1.736333,3.74276 -1.794209,-0.0193 -2.199353,-0.0193 -0.733118,0 -2.363341,0.0193 z m 7.466227,-6.54983 h 2.999996 q -1.118969,-3.40514 -1.225078,-3.7524 -0.636655,1.418 -1.080385,2.32475 z"
         id="path19120" />
      <path
         d="m 89.361898,204.55276 0.192926,-2.02572 0.376205,-6.86815 0.106109,-2.76849 v -1.50482 q 1.495175,0.0193 2.643083,0.0193 0.819935,0 2.305464,-0.0193 l 4.128611,7.48552 0.569131,1.09968 q 0.106109,-1.62058 0.212219,-4.5434 0.115754,-2.92283 0.115754,-4.0418 1.18649,0.0193 1.90032,0.0193 0.32797,0 1.89067,-0.0193 l -0.23151,2.87459 -0.43408,7.98713 -0.0579,2.30546 q -1.25402,-0.0193 -2.34405,-0.0193 -0.906748,0 -2.508032,0.0193 -0.501607,-0.94533 -0.742765,-1.36977 l -1.620576,-2.74919 q -0.800642,-1.35048 -1.475882,-2.58521 -0.44373,-0.78135 -0.916398,-1.71704 l -0.202572,4.57235 -0.09646,3.84886 q -1.19614,-0.0193 -1.823148,-0.0193 -0.530546,0 -1.987136,0.0193 z"
         id="path19117" />
      <path
         d="m 105.58696,204.55276 q 0.21221,-2.19935 0.28939,-3.52089 0.11575,-1.96784 0.23151,-5.09324 0.0868,-2.39228 0.0868,-3.42443 v -1.12862 q 1.12862,0.0289 1.94855,0.0289 0.791,0 2.07396,-0.0386 1.28295,-0.0482 2.41157,-0.0482 1.2926,0 2.26688,0.15434 0.97427,0.15434 1.8135,0.63666 0.84887,0.48231 1.418,1.26366 0.56913,0.78135 0.86817,1.8328 0.29903,1.0418 0.29903,2.15112 0,1.09003 -0.23151,2.10289 -0.23151,1.00321 -0.6463,1.8135 -0.41479,0.81029 -0.97427,1.39871 -0.54984,0.57878 -1.26367,0.99357 -0.53054,0.30868 -1.07074,0.48232 -0.54019,0.17363 -1.47588,0.27974 -1.0418,0.11575 -2.36334,0.11575 l -3.8971,-0.0289 q -0.54984,0 -1.78456,0.0289 z m 4.16719,-2.90353 q 0.53055,0.0482 1.10933,0.0482 0.98392,0 1.75562,-0.17363 0.7717,-0.17363 1.35048,-0.74276 0.58843,-0.56914 0.86817,-1.45659 0.27974,-0.89711 0.27974,-1.8328 0,-1.14791 -0.41479,-1.92926 -0.41479,-0.79099 -1.10932,-1.09967 -0.68489,-0.30868 -1.87138,-0.30868 -0.69454,0 -1.63987,0.0579 z"
         id="path19114" />
      <path
         d="m 119.1207,204.55276 0.80064,-1.38906 4.98713,-9.39549 0.53055,-1.05144 q 0.23151,-0.46302 0.6463,-1.33119 1.69775,0.0193 2.4791,0.0193 1.36012,0 2.51768,-0.0193 l 1.40836,4.0225 2.86494,7.73633 0.55949,1.40835 q -1.66881,-0.0193 -2.02572,-0.0193 -0.81029,0 -2.38264,0.0193 -0.42443,-1.59163 -1.22508,-3.74276 h -4.86172 q -0.83923,1.69775 -1.73634,3.74276 -1.79421,-0.0193 -2.19935,-0.0193 -0.73312,0 -2.36334,0.0193 z m 7.46623,-6.54983 h 2.99999 q -1.11897,-3.40514 -1.22508,-3.7524 -0.63665,1.418 -1.08038,2.32475 z"
         id="path19111" />
    </g>
  </g>
</svg>
