<?xml version="1.0" encoding="UTF-8" standalone="no"?>
<!-- Created with Inkscape (http://www.inkscape.org/) -->

<svg
   width="210mm"
   height="297mm"
   viewBox="0 0 210 297"
   version="1.1"
   id="svg5"
   sodipodi:docname="no-text.svg"
   inkscape:version="1.1.2 (b8e25be833, 2022-02-05)"
   xmlns:inkscape="http://www.inkscape.org/namespaces/inkscape"
   xmlns:sodipodi="http://sodipodi.sourceforge.net/DTD/sodipodi-0.dtd"
   xmlns="http://www.w3.org/2000/svg"
   xmlns:svg="http://www.w3.org/2000/svg">
  <sodipodi:namedview
     id="namedview7"
     pagecolor="#ffffff"
     bordercolor="#666666"
     borderopacity="1.0"
     inkscape:pageshadow="2"
     inkscape:pageopacity="0.0"
     inkscape:pagecheckerboard="0"
     inkscape:document-units="mm"
     showgrid="false"
     inkscape:snap-global="false"
     inkscape:zoom="0.99597362"
     inkscape:cx="348.4028"
     inkscape:cy="564.27197"
     inkscape:window-width="1366"
     inkscape:window-height="745"
     inkscape:window-x="-8"
     inkscape:window-y="-8"
     inkscape:window-maximized="1"
     inkscape:current-layer="layer1" />
  <defs
     id="defs2">
    <inkscape:path-effect
       effect="bend_path"
       id="path-effect19128"
       is_visible="true"
       lpeversion="1"
       bendpath="m 49.127226,197.94023 c 35.000661,11.91796 63.853124,9.49237 86.787664,0"
       prop_scale="1"
       scale_y_rel="false"
       vertical="false"
       hide_knot="false"
       bendpath-nodetypes="cc" />
    <inkscape:path-effect
       effect="spiro"
       id="path-effect5679"
       is_visible="true"
       lpeversion="1" />
    <inkscape:path-effect
       effect="spiro"
       id="path-effect5390"
       is_visible="true"
       lpeversion="1" />
  </defs>
  <g
     inkscape:label="Layer 1"
     inkscape:groupmode="layer"
     id="layer1">
    <g
       id="g19849"
       transform="matrix(1.6631132,0,0,1.6631132,-13.947927,-87.47815)">
      <path
         id="path846"
         style="fill:#ffffff;stroke:#000000;stroke-width:1.96453"
         d="m 63.705348,148.76788 c 2.577346,11.42995 -6.647236,15.99776 -20.66654,15.86522 -13.232427,-0.1251 -23.105518,-4.66413 -20.666543,-15.86522 1.86422,-8.56151 9.252726,-15.86523 20.666543,-15.86523 11.413815,0 18.739159,7.31772 20.66654,15.86523 z"
         sodipodi:nodetypes="sssss" />
      <path
         id="path846-0"
         style="fill:#000000;fill-opacity:1;stroke:#000000;stroke-width:0.720726"
         d="m 39.411096,144.7024 c 0.430632,2.6706 -0.501344,6.32555 -5.381069,7.89985 -4.620296,1.49061 -8.58662,1.02598 -9.022005,-3.15705 -0.332784,-3.19728 1.403771,-6.59016 5.38107,-7.89985 3.977299,-1.30969 8.51027,-0.0165 9.022004,3.15705 z"
         sodipodi:nodetypes="sssss" />
      <path
         id="path846-0-0"
         style="fill:#000000;fill-opacity:1;stroke:#000000;stroke-width:0.720726"
         d="m 46.615201,144.7024 c -0.430632,2.6706 0.501344,6.32555 5.381068,7.89985 4.620296,1.49061 8.586621,1.02598 9.022007,-3.15705 0.332783,-3.19728 -1.403772,-6.59016 -5.381071,-7.89985 -3.977299,-1.30969 -8.510268,-0.0165 -9.022004,3.15705 z"
         sodipodi:nodetypes="sssss" />
      <ellipse
         style="fill:#fffffd;fill-opacity:1;stroke:#fffffe;stroke-width:1.10014;stroke-miterlimit:4;stroke-dasharray:none;stroke-opacity:1"
         id="path2341"
         cx="35.129353"
         cy="146.08466"
         rx="0.73063534"
         ry="1.4612707" />
      <ellipse
         style="fill:#fffffd;fill-opacity:1;stroke:#fffffe;stroke-width:1.10014;stroke-miterlimit:4;stroke-dasharray:none;stroke-opacity:1"
         id="path2341-1"
         cx="50.38316"
         cy="146.08466"
         rx="0.73063534"
         ry="1.4612707" />
      <path
         style="fill:#000000;fill-opacity:1;stroke:#000000;stroke-width:0.103956px;stroke-linecap:butt;stroke-linejoin:miter;stroke-opacity:1"
         d="m 23.20728,144.76266 c -0.835012,-3.02691 -0.893315,-9.0543 1.356894,-11.58579 2.505035,-2.81816 12.107671,0.83501 12.107671,0.83501 -6.138096,2.08368 -10.384169,5.88738 -13.464565,10.75078 z"
         id="path3144"
         sodipodi:nodetypes="cscc" />
      <path
         style="fill:#000000;fill-opacity:1;stroke:#000000;stroke-width:0.103956px;stroke-linecap:butt;stroke-linejoin:miter;stroke-opacity:1"
         d="m 63.229281,144.76266 c 0.835014,-3.02691 0.893317,-9.0543 -1.356891,-11.58579 -2.505035,-2.81816 -12.107671,0.83501 -12.107671,0.83501 6.138094,2.08368 10.384168,5.88738 13.464562,10.75078 z"
         id="path3144-5"
         sodipodi:nodetypes="cscc" />
      <path
         id="path3872"
         style="stroke-width:0.709359"
         d="m 45.257245,150.17696 c 0,0.83586 -1.074908,0.37165 -2.191906,0.41751 -1.257404,0.0516 -2.296281,0.41835 -2.296281,-0.41751 0,-0.83586 1.004715,-1.51346 2.244093,-1.51346 1.239379,0 2.244094,0.6776 2.244094,1.51346 z"
         sodipodi:nodetypes="sssss" />
      <path
         style="fill:none;stroke:#000000;stroke-width:1.17872;stroke-linecap:round;stroke-linejoin:round;stroke-miterlimit:4;stroke-dasharray:none;stroke-opacity:1"
         d="m 38.732444,155.03668 c 0.286724,0.83693 0.827288,1.58502 1.531887,2.11999 0.7046,0.53498 1.570411,0.85469 2.4536,0.90603 1.008529,0.0586 2.034151,-0.23581 2.858003,-0.82048 0.823851,-0.58467 1.440345,-1.4556 1.717925,-2.42695"
         id="path5677"
         inkscape:path-effect="#path-effect5679"
         inkscape:original-d="m 38.732444,155.03668 c 1.3286,1.00878 2.657095,2.01745 3.985487,3.02602 1.328392,1.00857 3.050724,-2.16485 4.575928,-3.24743" />
    </g>
  </g>
</svg>
